<?xml version="1.0" encoding="utf-8"?>
<svg xmlns="http://www.w3.org/2000/svg" viewBox="16.5944 79.6824 460.2245 320.874" width="460.2245px" height="320.874px"><g id="object-0" transform="matrix(1, 0, 0, 1, -148.99404907226562, -66.37757873535156)"><path d="M 273.356 337.336 C 273.356 340.44 273.477 344.3 269.744 345.665 C 268.5 346.039 266.888 346.039 266.64 346.039 C 260.292 346.039 259.549 342.929 259.549 337.336 L 259.549 293.675 C 259.549 293.18 259.175 288.578 261.911 286.712 C 263.155 285.842 264.52 285.715 266.139 285.715 C 269.249 285.715 272.359 286.216 273.229 289.822 C 273.477 291.066 273.477 292.184 273.477 293.428 L 273.477 304.498 L 294.374 304.498 L 294.374 293.923 C 294.374 289.822 294.247 286.09 292.381 282.23 C 289.277 275.514 281.685 270.417 266.265 270.417 C 254.446 270.417 248.231 273.4 244.251 277.38 C 239.027 282.484 238.405 288.077 238.405 295.046 L 238.405 338.326 C 238.405 344.795 239.027 347.658 240.518 350.641 C 241.883 353.377 243.75 354.996 244.619 355.618 C 248.726 359.097 254.446 360.963 265.517 360.963 C 273.229 360.963 282.56 360.715 288.654 354.996 C 294.622 349.397 294.869 341.685 294.869 334.226 L 294.869 326.386 L 273.356 326.386 L 273.356 337.336 Z" fill-rule="evenodd" style="fill: rgb(255, 255, 255);"/><path d="M 317.694 359.845 L 338.464 359.845 L 338.464 329.001 L 360.358 272.035 L 339.086 272.035 L 328.39 310.839 L 317.694 272.035 L 296.797 272.035 L 317.694 329.001 L 317.694 359.845 Z" fill-rule="evenodd" style="fill: rgb(255, 255, 255);"/><path d="M 395.104 344.052 L 386.896 344.052 L 386.896 321.784 L 395.104 321.784 C 401.573 321.784 401.826 325.269 401.826 333.356 C 401.826 341.062 401.204 344.052 395.104 344.052 M 386.896 287.581 L 394.983 287.581 C 400.081 287.581 401.452 289.822 401.452 296.786 C 401.452 303.375 400.83 306.365 395.605 306.365 L 386.896 306.365 L 386.896 287.581 Z M 417.867 318.553 C 415.627 315.937 413.392 314.82 408.415 313.328 C 411.151 312.332 414.389 311.335 416.998 308.104 C 419.981 304.619 420.229 299.896 420.229 292.183 C 420.229 288.451 421.352 276.263 406.302 272.778 C 403.566 272.156 401.204 272.035 395.853 272.035 L 366.995 272.035 L 366.995 359.846 L 399.585 359.846 C 411.526 359.846 421.352 357.484 421.352 335.838 C 421.352 327.383 421.226 322.533 417.867 318.553" fill-rule="evenodd" style="fill: rgb(255, 255, 255);"/><path d="M 473.389 344.299 L 449.261 344.299 L 449.261 323.154 L 472.018 323.154 L 472.018 307.729 L 449.261 307.729 L 449.261 287.454 L 473.389 287.454 L 473.389 272.035 L 427.989 272.035 L 427.989 359.845 L 473.389 359.845 L 473.389 344.299 Z" fill-rule="evenodd" style="fill: rgb(255, 255, 255);"/><path d="M 506.516 307.355 L 499.927 307.355 L 499.927 287.207 L 506.395 287.207 C 510.997 287.207 513.111 288.451 513.48 291.314 C 513.733 292.806 513.854 295.916 513.854 298.277 C 513.854 305.368 512.115 307.355 506.516 307.355 M 532.758 296.786 C 532.758 289.822 532.136 284.972 530.771 281.614 C 528.035 275.019 521.694 272.035 510.001 272.035 L 480.026 272.035 L 480.026 359.846 L 499.927 359.846 L 499.927 322.406 L 503.406 322.406 L 515.346 359.846 L 536.491 359.846 L 521.694 319.67 C 530.276 315.569 532.758 310.465 532.758 296.786" fill-rule="evenodd" style="fill: rgb(255, 255, 255);"/><path d="M 309.129 465.694 L 330.462 465.694 L 330.462 428.112 L 350.433 428.112 L 350.433 412.73 L 330.462 412.73 L 330.462 393.138 L 352.168 393.138 L 352.168 378.129 L 309.129 378.129 L 309.129 465.694 Z" fill-rule="evenodd" style="fill: rgb(255, 255, 255);"/><path d="M 393.304 443.988 C 393.304 446.596 393.057 449.324 390.329 450.685 C 388.715 451.432 386.36 451.432 385.986 451.432 C 378.548 451.432 378.795 447.463 378.795 443.988 L 378.795 399.088 C 378.795 398.841 378.422 394.252 381.397 392.764 C 383.011 391.897 385.246 392.017 385.619 392.017 C 388.715 392.017 392.063 392.264 393.057 395.986 C 393.304 396.98 393.304 397.227 393.304 399.088 L 393.304 443.988 Z M 407.072 382.471 C 401.122 377.262 393.557 376.388 385.986 376.388 C 376.561 376.388 367.262 377.882 361.552 386.314 C 357.956 391.65 357.462 396.607 357.462 402.81 L 357.462 438.905 C 357.462 446.469 358.083 449.818 359.57 453.414 C 361.058 457.262 363.539 459.617 364.654 460.611 C 370.857 466.067 378.548 466.808 386.486 466.808 C 399.634 466.808 405.831 463.213 409.8 458.003 C 414.269 452.053 414.39 445.476 414.39 438.284 L 414.39 404.792 C 414.39 400.202 414.39 395.74 412.902 391.277 C 411.288 386.561 408.56 383.832 407.072 382.471" fill-rule="evenodd" style="fill: rgb(255, 255, 255);"/><path d="M 448.105 413.35 L 441.534 413.35 L 441.534 393.258 L 447.985 393.258 C 452.574 393.258 454.682 394.499 455.049 397.353 C 455.302 398.841 455.423 401.943 455.423 404.298 C 455.423 411.368 453.688 413.35 448.105 413.35 M 474.274 402.81 C 474.274 395.866 473.654 391.03 472.292 387.681 C 469.564 381.104 463.24 378.129 451.58 378.129 L 421.689 378.129 L 421.689 465.694 L 441.534 465.694 L 441.534 428.359 L 445.003 428.359 L 456.91 465.694 L 477.996 465.694 L 463.24 425.63 C 471.799 421.541 474.274 416.452 474.274 402.81" fill-rule="evenodd" style="fill: rgb(255, 255, 255);"/><path d="M 479.948 393.384 L 497.312 393.384 L 497.312 465.693 L 518.771 465.693 L 518.771 393.384 L 536.255 393.384 L 536.255 378.128 L 479.948 378.128 L 479.948 393.384 Z" fill-rule="evenodd" style="fill: rgb(255, 255, 255);"/><path d="M 542.892 465.694 L 564.104 465.694 L 564.104 378.129 L 542.892 378.129 L 542.892 465.694 Z" fill-rule="evenodd" style="fill: rgb(255, 255, 255);"/><path d="M 620.73 425.63 C 618.249 423.149 615.52 421.414 614.527 420.794 L 596.543 408.266 C 595.055 407.152 594.308 406.532 593.814 405.785 C 592.447 403.924 592.574 401.695 592.574 399.335 C 592.574 397.106 592.327 394.004 594.435 392.517 C 595.796 391.523 597.163 391.523 597.783 391.523 C 603.24 391.523 603.734 394.378 603.734 398.841 L 603.734 405.044 L 623.705 405.044 C 623.826 398.841 624.199 391.896 621.597 386.066 C 620.23 383.091 617.749 379.243 610.558 377.628 C 606.589 376.761 602.993 376.514 599.024 376.514 C 594.061 376.514 587.117 377.008 582.401 379.122 C 573.596 382.965 572.602 391.15 572.229 394.251 C 571.735 397.726 571.735 400.455 571.735 401.816 C 571.735 411.242 573.843 414.964 577.438 418.312 C 579.546 420.173 581.781 421.661 584.015 423.275 L 596.663 432.454 C 600.385 435.182 602.493 436.67 603.613 438.531 C 604.481 440.018 604.601 441.879 604.601 445.475 C 604.601 448.203 603.86 451.552 597.904 451.552 C 591.706 451.552 591.706 446.595 591.706 444.608 L 591.706 437.664 L 570.741 437.664 L 570.741 442.873 C 570.741 447.463 570.867 452.919 573.102 457.135 C 576.571 463.339 584.136 466.934 598.151 466.934 C 609.937 466.934 615.767 464.579 619.736 460.731 C 625.066 455.648 625.813 449.197 625.813 442.373 C 625.813 432.948 624.199 429.105 620.73 425.63" fill-rule="evenodd" style="fill: rgb(255, 255, 255);"/><path d="M 213.586 358.743 C 208.064 333.497 209.844 254.799 209.844 254.799 L 283.132 236.214 L 283.132 236.215 L 356.411 254.798 L 356.411 235.126 L 283.132 216.576 L 165.622 246.377 C 165.622 246.377 164.975 330.101 169.364 350.32 C 180.509 401.653 222.369 440.685 283.132 465.688 L 283.132 453.055 L 283.132 451.203 C 246.543 427.457 221.825 396.41 213.586 358.743" fill-rule="evenodd" style="fill: rgb(255, 255, 255);"/><path d="M 259.629 152.022 L 259.629 175.519 L 236.127 181.481 L 236.127 157.984 L 212.625 163.947 L 212.625 187.444 L 212.625 187.447 L 189.124 193.41 L 189.124 169.913 L 165.622 175.875 L 165.622 199.373 L 165.622 199.377 L 165.622 222.874 L 189.124 216.912 L 212.625 210.949 L 212.625 210.946 L 236.127 204.984 L 236.127 204.983 L 259.629 199.021 L 283.131 193.059 L 283.131 169.561 L 283.131 169.557 L 283.131 146.06 L 259.629 152.022 Z" fill="#ed1c24"/><path d="M 327.1 164.684 L 327.1 180.708 L 312.444 176.99 L 312.444 153.492 L 297.788 157.211 L 297.788 173.276 L 312.444 176.994 L 312.444 200.491 L 327.1 204.21 L 327.1 180.749 L 341.756 184.467 L 341.756 160.965 L 327.1 164.684 Z" fill="#ed1c24"/></g></svg>